<svg width="38" height="36" viewBox="0 0 38 36" fill="none" xmlns="http://www.w3.org/2000/svg">
<path d="M36.1039 32.6635L35.6347 34.3055C35.4536 34.9382 34.7675 35.456 34.1092 35.456H5.38579C4.72756 35.456 4.04136 34.9382 3.86023 34.3055L3.39111 32.6635H36.1039Z" fill="#FFA18F"/>
<path d="M1.90557 12.218C1.08379 13.3453 0.598633 14.732 0.598633 16.2313C0.598633 19.9964 3.66169 23.0602 7.42759 23.0602H8.89485C10.6757 27.2953 14.8645 30.2698 19.7475 30.2698C26.2469 30.2698 31.5161 25.0007 31.5161 18.5012V12.218H1.90557ZM7.42766 20.6666C4.98218 20.6666 2.99226 18.6767 2.99226 16.2312C2.99226 15.6695 3.09678 15.1222 3.29783 14.6115H7.97895V18.5011C7.97895 19.2407 8.04758 19.9644 8.17839 20.6665L7.42766 20.6666Z" fill="#FF9095"/>
<path d="M19.7473 26.8788C19.4168 26.8788 19.1489 26.6109 19.1489 26.2805C19.1489 25.95 19.4168 25.6821 19.7473 25.6821C24.1468 25.6821 27.726 22.1028 27.726 17.7034V17.0049C27.726 16.6744 27.9939 16.4065 28.3244 16.4065C28.6549 16.4065 28.9228 16.6744 28.9228 17.0049V17.7034C28.9229 22.7627 24.8067 26.8788 19.7473 26.8788Z" fill="white"/>
<path d="M28.3245 15.2096C27.994 15.2096 27.7261 14.9417 27.7261 14.6112V11.4198C27.7261 11.0893 27.994 10.8214 28.3245 10.8214C28.6549 10.8214 28.9229 11.0893 28.9229 11.4198V14.6112C28.9229 14.9417 28.655 15.2096 28.3245 15.2096Z" fill="white"/>
<path d="M36.9016 32.015H36.0902C36.0895 32.015 2.59302 32.015 2.59302 32.015C2.26255 32.015 1.99463 32.2829 1.99463 32.6133C1.99463 32.9438 2.26255 33.2117 2.59302 33.2117H2.93953L3.28457 34.4195C3.53843 35.3081 4.46128 36.0043 5.38552 36.0043H34.1089C35.0332 36.0043 35.956 35.3081 36.2099 34.4196L36.555 33.2117H36.9015C37.232 33.2117 37.4999 32.9438 37.4999 32.6133C37.5 32.2829 37.232 32.015 36.9016 32.015ZM35.0592 34.0908C34.952 34.4659 34.4991 34.8075 34.109 34.8075H5.3856C4.99543 34.8075 4.54258 34.4659 4.43542 34.0908L4.18428 33.2118H35.3104L35.0592 34.0908Z" fill="#700D00"/>
<path d="M7.42712 21.2147H8.17808C8.35591 21.2147 8.52459 21.1355 8.63826 20.9987C8.75193 20.862 8.79895 20.6817 8.76643 20.5068C8.64075 19.831 8.57703 19.1393 8.57703 18.4512V14.5612C8.57703 14.2307 8.30911 13.9628 7.97864 13.9628H3.29766C3.05193 13.9628 2.83118 14.113 2.74102 14.3417C2.51045 14.9264 2.39355 15.5452 2.39355 16.1809C2.39355 18.9565 4.65161 21.2147 7.42712 21.2147ZM3.72766 15.1596H7.38025V18.4512C7.38025 18.974 7.4135 19.4984 7.47927 20.0179H7.4272C5.31152 20.0179 3.59041 18.2966 3.59041 16.181C3.59033 15.8317 3.63647 15.4897 3.72766 15.1596Z" fill="#700D00"/>
<path d="M7.4272 23.6083H8.50386C10.5188 28.0015 14.8887 30.8182 19.7473 30.8182C26.5665 30.8182 32.1144 25.2703 32.1144 18.4512V12.1676C32.1144 11.8371 31.8464 11.5692 31.516 11.5692H1.90525C1.71401 11.5692 1.53435 11.6606 1.42163 11.8151C0.491602 13.0913 0 14.601 0 16.181C0 20.2764 3.33186 23.6083 7.4272 23.6083ZM2.21836 12.766H30.9176V18.4511C30.9176 24.6103 25.9066 29.6213 19.7473 29.6213C15.2379 29.6213 11.1945 26.9351 9.44612 22.7778C9.35273 22.5557 9.13535 22.4114 8.89446 22.4114H7.42727C3.99177 22.4114 1.19685 19.6164 1.19685 16.181C1.19678 14.9561 1.54907 13.7818 2.21836 12.766Z" fill="#700D00"/>
<path d="M16.9548 10.3724C16.6244 10.3724 16.3564 10.1045 16.3564 9.77402C16.3564 8.86267 16.6044 8.3874 16.8233 7.96802C17.0082 7.6136 17.1543 7.33352 17.1543 6.71572C17.1543 6.09778 17.0082 5.8177 16.8233 5.46314C16.6044 5.04375 16.3564 4.56841 16.3564 3.65706C16.3564 2.7457 16.6044 2.27036 16.8233 1.8509C17.0082 1.49641 17.1543 1.21633 17.1543 0.598389C17.1543 0.26792 17.4223 0 17.7527 0C18.0832 0 18.3511 0.26792 18.3511 0.598389C18.3511 1.50974 18.1031 1.98508 17.8843 2.40454C17.6993 2.75903 17.5532 3.03911 17.5532 3.65706C17.5532 4.275 17.6993 4.55508 17.8843 4.90957C18.1031 5.32903 18.3511 5.80437 18.3511 6.71572C18.3511 7.627 18.1031 8.10227 17.8843 8.52166C17.6993 8.87615 17.5532 9.15615 17.5532 9.77402C17.5533 10.1045 17.2853 10.3724 16.9548 10.3724Z" fill="#E8D6BD"/>
<path d="M21.7419 10.3724C21.4115 10.3724 21.1436 10.1045 21.1436 9.77402C21.1436 8.86267 21.3916 8.3874 21.6104 7.96802C21.7953 7.6136 21.9415 7.33352 21.9415 6.71572C21.9415 6.09778 21.7953 5.8177 21.6104 5.46314C21.3916 5.04375 21.1436 4.56841 21.1436 3.65706C21.1436 2.7457 21.3916 2.27036 21.6104 1.8509C21.7953 1.49641 21.9415 1.21633 21.9415 0.598389C21.9415 0.26792 22.2094 0 22.5398 0C22.8703 0 23.1382 0.26792 23.1382 0.598389C23.1382 1.50974 22.8902 1.98508 22.6714 2.40454C22.4864 2.75903 22.3403 3.03911 22.3403 3.65706C22.3403 4.275 22.4864 4.55508 22.6714 4.90957C22.8902 5.32903 23.1382 5.80437 23.1382 6.71572C23.1382 7.627 22.8902 8.10227 22.6714 8.52166C22.4864 8.87615 22.3403 9.15615 22.3403 9.77402C22.3403 10.1045 22.0724 10.3724 21.7419 10.3724Z" fill="#E8D6BD"/>
</svg>
